<?xml version="1.0" standalone="no"?><!DOCTYPE svg PUBLIC "-//W3C//DTD SVG 1.1//EN" "http://www.w3.org/Graphics/SVG/1.1/DTD/svg11.dtd"><svg t="1764120885198" class="icon" viewBox="0 0 1024 1024" version="1.1" xmlns="http://www.w3.org/2000/svg" p-id="3977" xmlns:xlink="http://www.w3.org/1999/xlink" width="200" height="200"><path d="M192 0h448.128L960 320v576a128 128 0 0 1-128 128H192a128 128 0 0 1-128-128V128a128 128 0 0 1 128-128z" fill="#387EFA" p-id="3978"></path><path d="M311.616 701.056c25.088 0 45.76-7.808 62.016-23.488s24.32-35.968 24.32-60.8v-33.408c0-24.704-8.128-44.992-24.32-60.8-16.256-15.744-36.928-23.68-62.08-23.68H240v202.24h71.616z m0-31.104h-30.464V530.176h30.464c13.504 0 24.384 4.928 32.64 14.848 8.32 9.92 12.416 22.592 12.416 38.08v33.728a57.856 57.856 0 0 1-12.416 38.208 40.32 40.32 0 0 1-32.64 14.976zM511.168 704c25.472 0 46.08-8.064 62.016-24.256 15.872-16.128 23.808-36.672 23.808-61.568v-36.352c0-24.704-8-45.184-24-61.44s-36.672-24.384-62.08-24.384c-25.344 0-45.824 8.128-61.568 24.32-15.744 16.32-23.616 36.8-23.616 61.44v36.48c0 24.768 7.936 45.248 23.68 61.44 15.808 16.192 36.352 24.32 61.76 24.32z m0-31.488a39.04 39.04 0 0 1-32.704-15.168c-7.808-10.112-11.712-23.168-11.712-39.168v-36.672c0-15.744 3.84-28.608 11.648-38.72a38.592 38.592 0 0 1 32.448-15.104c14.08 0 25.152 4.992 33.152 15.104 8 10.112 11.968 23.04 11.968 38.72v36.672c0 16-3.968 29.056-11.84 39.168a39.552 39.552 0 0 1-32.96 15.168z m195.712 31.488c24.192 0 43.072-6.08 56.832-18.304 13.696-12.224 20.352-29.12 19.968-50.688l-0.256-0.832h-39.872c0 13.12-3.072 22.848-9.088 29.184-6.08 6.4-15.232 9.536-27.52 9.536a35.648 35.648 0 0 1-30.4-14.72c-7.296-9.792-10.944-22.464-10.944-38.016v-40.448c0-15.424 3.456-28.096 10.368-37.824a33.28 33.28 0 0 1 28.8-14.656c13.248 0 23.04 3.2 29.44 9.536 6.272 6.336 9.472 16 9.472 28.928h40l0.32-0.832c0.384-21.824-6.528-38.784-20.608-50.816-14.08-12.032-33.6-18.048-58.624-18.048-23.936 0-43.328 7.808-58.048 23.552-14.72 15.68-22.144 35.84-22.144 60.416v40.128c0 24.704 7.552 44.928 22.72 60.48 15.104 15.616 35.008 23.424 59.584 23.424z" fill="#FFFFFF" opacity=".9" p-id="3979"></path><path d="M640 0l320 320h-192a128 128 0 0 1-128-128V0z" fill="#97CEF9" p-id="3980"></path></svg>