<?xml version="1.0" standalone="no"?><!DOCTYPE svg PUBLIC "-//W3C//DTD SVG 1.1//EN" "http://www.w3.org/Graphics/SVG/1.1/DTD/svg11.dtd"><svg t="1764140994883" class="icon" viewBox="0 0 1024 1024" version="1.1" xmlns="http://www.w3.org/2000/svg" p-id="10768" xmlns:xlink="http://www.w3.org/1999/xlink" width="200" height="200"><path d="M828.416 676.864l-251.392-162.304 251.392-162.304c16.896-10.752 22.016-33.792 11.776-51.712-3.072-5.12-6.656-9.216-11.776-12.288l-297.472-192.512s-0.512 0-0.512-0.512c-0.512-0.512-1.536-1.024-2.048-1.024l-1.024-0.512c-3.072-1.536-6.656-2.56-10.24-3.072-1.024 0-2.56-0.512-3.584-0.512h-5.12c-0.512 0-1.024 0-1.536 0.512-0.512 0-1.024 0-2.048 0.512-0.512 0-1.024 0-1.536 0.512-0.512 0-1.536 0.512-2.048 0.512-0.512 0-1.024 0.512-1.024 0.512-0.512 0-1.536 0.512-2.048 1.024-0.512 0-1.024 0.512-1.536 0.512-0.512 0.512-1.024 0.512-1.536 1.024-0.512 0.512-1.024 0.512-1.536 1.024-0.512 0.512-1.024 0.512-1.024 1.024l-1.536 1.536-1.024 1.024-1.536 1.536-1.024 1.024-1.536 1.536c-0.512 0.512-0.512 1.024-1.024 1.536-0.512 0.512-0.512 1.024-1.024 1.536-0.512 0.512-0.512 1.024-1.024 1.536 0 0 0 0.512-0.512 0.512 0 0.512-0.512 0.512-0.512 1.024-0.512 1.024-1.024 2.048-1.536 3.584-0.512 1.536-1.536 3.584-2.048 5.12-0.512 1.024-0.512 2.56-1.024 3.584 0 0.512 0 1.536-0.512 2.048v323.072l-243.712-158.72c-16.896-10.752-38.912-5.632-49.152 12.288-10.24 17.408-5.12 40.448 11.776 51.712l251.392 162.304-251.392 162.304c-16.896 10.752-22.016 33.792-11.776 51.712 10.24 17.408 32.256 23.04 49.152 12.288L476.16 584.192V903.168c0 2.56 0.512 5.12 1.024 7.68 0.512 2.048 1.024 3.584 1.536 5.12l1.536 3.072c0.512 0.512 0.512 1.024 1.024 2.048 0 0.512 0.512 0.512 0.512 1.024 0 0 0 0.512 0.512 0.512 0.512 1.024 1.536 2.048 2.048 3.072l0.512 0.512c1.024 1.024 1.536 2.048 2.56 3.072l1.024 1.024c0.512 0.512 1.536 1.024 2.048 1.536 0.512 0.512 1.024 0.512 1.024 1.024 1.024 0.512 2.048 1.536 3.072 2.048 0 0 0.512 0 0.512 0.512 1.024 0.512 2.56 1.536 3.584 2.048 0.512 0 0.512 0 1.024 0.512 1.536 0.512 2.56 1.024 4.096 1.536 1.024 0 2.048 0.512 3.072 0.512H512.512c1.024 0 2.56 0 3.584-0.512h1.536c1.024 0 2.048-0.512 3.072-0.512 0.512 0 1.024 0 1.024-0.512 1.536-0.512 3.072-1.024 4.096-1.536h0.512c1.536-0.512 2.56-1.536 3.584-2.048h0.512l297.472-192.512c16.896-10.752 22.016-33.792 11.776-51.712-2.56-6.656-6.656-10.752-11.264-13.824zM547.84 194.56l194.048 125.952L547.84 445.952V194.56z m0 640v-251.392l194.048 125.952L547.84 834.56z" p-id="10769"></path></svg>