<?xml version="1.0" standalone="no"?><!DOCTYPE svg PUBLIC "-//W3C//DTD SVG 1.1//EN" "http://www.w3.org/Graphics/SVG/1.1/DTD/svg11.dtd"><svg t="1764141007956" class="icon" viewBox="0 0 1024 1024" version="1.1" xmlns="http://www.w3.org/2000/svg" p-id="11760" xmlns:xlink="http://www.w3.org/1999/xlink" width="200" height="200"><path d="M836.91 705.69L224.58 277.67c-14.74-10.3-35.03-6.7-45.33 8.03-10.3 14.73-6.7 35.03 8.03 45.32l612.33 428.02c14.74 10.3 35.03 6.7 45.33-8.03 10.3-14.73 6.7-35.02-8.03-45.32zM498.76 164.64L705.58 319.2 542.51 433.19l56.81 39.71 179.05-125.16c9.37-6.55 14.19-17.15 13.84-27.78 0.28-10.22-4.19-20.41-13-26.99L485.7 73.6c-0.2-0.15-0.43-0.24-0.64-0.38-0.99-0.71-2.06-1.29-3.14-1.89-0.82-0.45-1.61-0.96-2.46-1.33-0.99-0.44-2.04-0.75-3.07-1.09-1-0.33-1.99-0.7-3.01-0.93-0.93-0.21-1.9-0.29-2.86-0.42-1.19-0.16-2.36-0.33-3.55-0.36-0.26-0.01-0.5-0.08-0.76-0.08-0.73 0-1.42 0.17-2.14 0.22-1.16 0.08-2.3 0.15-3.45 0.35-1.05 0.18-2.05 0.47-3.06 0.75-1.01 0.28-2.01 0.55-2.99 0.93-1.01 0.39-1.95 0.86-2.91 1.34-0.93 0.46-1.84 0.92-2.73 1.48-0.92 0.58-1.76 1.23-2.61 1.9-0.81 0.63-1.61 1.24-2.37 1.95-0.87 0.82-1.63 1.72-2.41 2.62-0.45 0.53-0.98 0.97-1.41 1.53-0.15 0.2-0.23 0.42-0.38 0.63-0.72 1-1.3 2.09-1.9 3.17-0.45 0.81-0.95 1.6-1.32 2.43-0.44 0.99-0.75 2.04-1.09 3.08-0.33 1-0.7 1.99-0.93 3-0.21 0.93-0.29 1.89-0.41 2.84-0.16 1.19-0.33 2.38-0.36 3.57-0.01 0.26-0.08 0.49-0.08 0.75V357.1l65.1 45.5V164.64z m0 695.09V618.21l-110.48-77.22-198.61 138.83c-14.73 10.3-18.33 30.59-8.03 45.32 10.3 14.74 30.59 18.33 45.33 8.03l206.7-144.47v335.88c0 0.27 0.07 0.52 0.08 0.79 0.03 1.31 0.21 2.6 0.39 3.9 0.12 0.8 0.17 1.61 0.35 2.39 0.3 1.36 0.77 2.67 1.24 4 0.24 0.66 0.42 1.34 0.7 1.98 0.57 1.3 1.3 2.54 2.05 3.79 0.35 0.58 0.65 1.17 1.04 1.73 0.23 0.34 0.38 0.71 0.62 1.04 0.7 0.94 1.54 1.69 2.32 2.53 0.36 0.39 0.69 0.8 1.07 1.17 1.23 1.2 2.54 2.25 3.91 3.22 0.3 0.21 0.58 0.44 0.88 0.64 1.5 0.99 3.07 1.83 4.69 2.55 0.27 0.12 0.54 0.26 0.81 0.37 1.76 0.72 3.56 1.27 5.4 1.68 0.21 0.05 0.41 0.11 0.62 0.15 2.09 0.42 4.2 0.63 6.33 0.64h0.04c6.09 0 12.16-1.72 17.58-5.23 0.25-0.16 0.52-0.29 0.76-0.46 0.37-0.25 0.77-0.41 1.13-0.68l236.23-176.55-56.19-39.28-166.96 124.78z" fill="#333333" p-id="11761"></path></svg>