<?xml version="1.0" standalone="no"?><!DOCTYPE svg PUBLIC "-//W3C//DTD SVG 1.1//EN" "http://www.w3.org/Graphics/SVG/1.1/DTD/svg11.dtd"><svg t="1764140690056" class="icon" viewBox="0 0 1061 1024" version="1.1" xmlns="http://www.w3.org/2000/svg" p-id="5972" xmlns:xlink="http://www.w3.org/1999/xlink" width="207.2265625" height="200"><path d="M0 130.792608A114.365503 114.365503 0 0 1 114.332649 16.427105h116.599589a114.365503 114.365503 0 0 1 114.365503 114.365503v331.827515a114.365503 114.365503 0 0 1-114.365503 114.365503H114.332649a114.365503 114.365503 0 0 1-114.365503-114.365503z m114.365503-38.110883a38.143737 38.143737 0 0 0-38.110883 38.110883v331.827515a38.143737 38.143737 0 0 0 38.110883 38.110883H230.965092a38.143737 38.143737 0 0 0 38.110883-38.110883v-331.827515a38.143737 38.143737 0 0 0-38.110883-38.110883z" p-id="5973" fill="#2c2c2c"></path><path d="M134.537988 307.942505H38.078029V231.687885h261.38809v76.25462h-88.706365V367.967146a38.110883 38.110883 0 0 1-76.254621 0z m0 661.486653V543.835729h76.25462v425.593429a38.110883 38.110883 0 0 1-76.25462 0zM392.082136 54.537988A38.143737 38.143737 0 0 1 430.193018 16.427105h485.256674a129.609856 129.609856 0 0 1 129.609856 129.609856v462.850103a129.609856 129.609856 0 0 1-129.609856 129.609856h-299.958932v192.821355h190.554415a38.110883 38.110883 0 1 1 0 76.25462H348.4846a38.110883 38.110883 0 1 1 0-76.25462h190.554414v-192.821355h-255.934291a38.110883 38.110883 0 0 1 0-76.25462h632.344969a53.355236 53.355236 0 0 0 53.355236-53.355236V146.036961a53.355236 53.355236 0 0 0-53.355236-53.355236h-485.256674a38.143737 38.143737 0 0 1-38.110882-38.143737z" p-id="5974" fill="#2c2c2c"></path><path d="M430.193018 0h485.256674a146.201232 146.201232 0 0 1 146.036961 146.036961v462.850103a146.201232 146.201232 0 0 1-146.036961 146.036961h-283.531828v159.967145h174.127311a54.537988 54.537988 0 1 1 0 109.10883H348.4846a54.537988 54.537988 0 1 1 0-109.10883h174.12731v-159.967145h-239.507187a54.537988 54.537988 0 1 1 0-109.10883h632.344969a36.99384 36.99384 0 0 0 36.928131-36.928131V146.036961a36.99384 36.99384 0 0 0-36.928131-36.928131h-485.256674a54.537988 54.537988 0 1 1 0-109.10883z m485.256674 722.036961a113.314168 113.314168 0 0 0 113.182752-113.182752V146.036961A113.314168 113.314168 0 0 0 915.449692 32.854209h-485.256674a21.683778 21.683778 0 1 0 0 43.400411h485.256674a69.880903 69.880903 0 0 1 69.782341 69.782341v462.850103a69.880903 69.880903 0 0 1-69.782341 69.782341H283.334702a21.683778 21.683778 0 1 0 0 43.40041h272.361397v225.675565h-206.98152a21.683778 21.683778 0 0 0 0 43.400411h457.429158a21.683778 21.683778 0 1 0 0-43.400411h-206.981519v-225.675565zM21.815195 215.26078H316.057495v109.10883h-88.706366V367.967146a54.537988 54.537988 0 1 1-109.108829 0V324.501027H21.782341z m261.38809 32.85421H54.669405v43.40041H151.129363V367.967146a21.683778 21.683778 0 1 0 43.400411 0V291.646817h88.706366z m-164.928131 279.26078h109.10883v442.020534a54.537988 54.537988 0 0 1-109.10883 0z m76.25462 32.854209H151.129363v409.166325a21.683778 21.683778 0 0 0 43.400411 0z" p-id="5975" fill="#2c2c2c"></path></svg>