<?xml version="1.0" standalone="no"?><!DOCTYPE svg PUBLIC "-//W3C//DTD SVG 1.1//EN" "http://www.w3.org/Graphics/SVG/1.1/DTD/svg11.dtd"><svg t="1764258451707" class="icon" viewBox="0 0 1024 1024" version="1.1" xmlns="http://www.w3.org/2000/svg" p-id="3761" xmlns:xlink="http://www.w3.org/1999/xlink" width="200" height="200"><path d="M403.029333 342.570667L512 451.541333l287.061333-287.061333a85.333333 85.333333 0 0 1 120.661334 0l-516.693334 516.693333a170.666667 170.666667 0 1 1-60.330666-60.330666l108.970666-108.970667-108.970666-108.970667a170.666667 170.666667 0 1 1 60.330666-60.330666z m229.546667 229.504l287.146667 287.146666a85.333333 85.333333 0 0 1-120.661334 0l-226.858666-226.816 60.373333-60.330666z m-316.245333 135.466666a85.333333 85.333333 0 1 0-120.661334 120.661334 85.333333 85.333333 0 0 0 120.661334-120.661334z m0-391.338666a85.333333 85.333333 0 1 0-120.661334-120.661334A85.333333 85.333333 0 0 0 316.330667 316.16z" fill="#000000" p-id="3762"></path></svg>